<?xml version="1.0" standalone="no"?>
<!DOCTYPE svg PUBLIC "-//W3C//DTD SVG 20010904//EN"
 "http://www.w3.org/TR/2001/REC-SVG-20010904/DTD/svg10.dtd">
<svg version="1.0" xmlns="http://www.w3.org/2000/svg"
 width="260.000000pt" height="260.000000pt" viewBox="0 0 260.000000 260.000000"
 preserveAspectRatio="xMidYMid meet">
<metadata>
Created by potrace 1.14, written by Peter Selinger 2001-2017
</metadata>
<g transform="translate(0.000000,260.000000) scale(0.100000,-0.100000)"
fill="#000000" stroke="none">
<path d="M0 1300 l0 -1300 1300 0 1300 0 0 1300 0 1300 -1300 0 -1300 0 0
-1300z m1262 984 c-42 -106 -57 -202 -57 -359 1 -177 8 -225 85 -540 81 -328
93 -405 93 -560 -1 -210 -50 -338 -178 -465 l-62 -62 -66 31 c-313 141 -517
574 -494 1046 24 493 277 878 622 948 39 8 71 13 73 12 1 -1 -6 -24 -16 -51z
m204 25 c79 -25 197 -103 262 -174 130 -142 214 -315 265 -545 28 -130 31
-423 4 -550 -76 -362 -265 -635 -505 -729 -45 -18 -222 -55 -229 -48 -1 2 37
43 86 93 141 143 194 275 194 479 0 146 -21 251 -93 457 -145 415 -208 814
-156 992 l17 58 46 -7 c26 -4 75 -15 109 -26z"/>
<path d="M1090 2209 c-115 -58 -234 -188 -310 -339 -221 -438 -145 -1061 167
-1362 56 -54 150 -118 174 -118 24 0 96 84 130 152 45 89 59 158 59 289 0 143
-14 228 -90 534 -69 280 -90 411 -90 562 0 98 19 252 36 297 9 23 -4 20 -76
-15z m-242 -1393 c55 -105 139 -233 200 -305 32 -38 34 -42 12 -31 -43 23
-137 126 -178 197 -48 82 -101 207 -136 324 -36 118 -32 121 12 9 21 -53 61
-140 90 -194z"/>
<path d="M1364 2212 c-4 -19 -4 -92 -1 -161 10 -204 75 -477 190 -807 55 -156
72 -250 72 -404 0 -160 -17 -241 -76 -355 l-38 -76 32 18 c50 28 189 173 225
235 223 378 223 909 0 1286 -75 128 -243 265 -356 290 l-42 10 -6 -36z m323
-215 c85 -110 158 -268 188 -407 13 -62 13 -93 -1 -54 -69 197 -195 429 -307
566 -26 32 -47 61 -47 65 0 13 120 -109 167 -170z"/>
</g>
</svg>
